<?xml version="1.0" encoding="UTF-8"?>
<!-- Created with Inkscape (http://www.inkscape.org/) -->
<svg version="1.1" viewBox="0 0 24 24" xmlns="http://www.w3.org/2000/svg">
	<defs>
		<mask id="mask7" maskUnits="userSpaceOnUse">
			<rect x="12" y="-1" width="13" height="26" fill="#fff"/>
		</mask>
	</defs>
	<rect x="-1" y="-1" width="26" height="26" fill="#1a364e"/>
	<rect x="12" y="-1" width="13" height="26" fill="#b38d62"/>
	<path d="m-6 3c4 0 8-2 12-2s8 2 12 2 8-2 12-2v12c-4 0-8 2-12 2s-8-2-12-2-8 2-12 2z" fill="#946651" mask="url(#mask7)"/>
	<rect x="12" y="-1" width="3" height="14" fill="#ffffab" fill-opacity=".18"/>
	<rect x="-1" y="12" width="14" height="13" fill="#b38d62"/>
	<ellipse cy="16" rx="7" ry="3" fill="#0d912c"/>
	<ellipse transform="rotate(8.213)" cx="10.37" cy="14.88" rx="7" ry="3" fill="#0d912c"/>
	<ellipse cy="14" rx="7" ry="3" fill="#49c730"/>
	<ellipse transform="rotate(8.213)" cx="10.09" cy="12.9" rx="7" ry="3" fill="#49c730"/>
	<ellipse cy="12" rx="7" ry="3" fill="#bff542"/>
	<ellipse transform="rotate(8.213)" cx="9.804" cy="10.92" rx="7" ry="3" fill="#bff542"/>
</svg>
