<?xml version="1.0" encoding="UTF-8"?>
<!-- Created with Inkscape (http://www.inkscape.org/) -->
<svg version="1.1" viewBox="0 0 24 24" xmlns="http://www.w3.org/2000/svg">
	<defs>
		<mask id="mask5" maskUnits="userSpaceOnUse">
			<g>
				<rect x="-1" y="-1" width="26" height="26" fill="#fff"/>
				<rect x="-3" y="12" width="15" height="15" rx="2"/>
			</g>
		</mask>
		<mask id="mask15" maskUnits="userSpaceOnUse">
			<g>
				<rect x="-3" y="9" width="18" height="18" rx="4" fill="#fff"/>
				<rect x="-3" y="12" width="15" height="15" rx="2"/>
			</g>
		</mask>
	</defs>
	<rect x="-1" y="-1" width="26" height="26" fill="#1a364e"/>
	<g mask="url(#mask5)">
		<rect x="-1" y="-1" width="26" height="26" fill="#b38d62"/>
		<path d="m-6 3c4 0 8-2 12-2s8 2 12 2 8-2 12-2v12c-4 0-8 2-12 2s-8-2-12-2-8 2-12 2z" fill="#946651" mask="none"/>
	</g>
	<g fill-opacity=".1804" mask="url(#mask15)">
		<path d="m-1 9h16l-16 16z" fill="#111134" stroke-linecap="round"/>
		<path d="m15 9v16h-16z" fill="#ffffab" mask="none"/>
	</g>
</svg>
