<?xml version="1.0" encoding="UTF-8"?>
<!-- Created with Inkscape (http://www.inkscape.org/) -->
<svg version="1.1" viewBox="0 0 8 8" xmlns="http://www.w3.org/2000/svg">
	<g>
		<rect x="-1" y="-1" width="10" height="10" fill="#946651"/>
		<path d="m-4 2c1.333 0 2.667-0.6667 4-0.6667 1.333 0 2.667 0.6666 4 0.6666s2.667-0.6667 4-0.6667c1.333 0 2.667 0.6666 4 0.6666v4c-1.333 0-2.667-0.6667-4-0.6667-1.333 0-2.667 0.6666-4 0.6666s-2.667-0.6667-4-0.6667c-1.333 0-2.667 0.6666-4 0.6666z" fill="#b38d62"/>
	</g>
	<g transform="matrix(-1,0,0,1,8,0)">
		<path transform="translate(0,-16)" d="m2.9 15.01 6.1-0.007542v3.883h-1c-1.333 0-3.42-0.5004-4.5-1.683-0.5109-0.5595-0.6002-1.526-0.6002-2.192z" fill="#0da132"/>
		<path transform="translate(0,-16)" d="m4 15h5v2.833h-1c-1.333 0.001563-3.68-0.5242-4-1.833z" fill="#49c730"/>
		<path d="m5 0v-1h4v2h-1c-1.822 0-2.541-0.4352-3-1z" fill="#bff542"/>
	</g>
</svg>
