<?xml version="1.0" encoding="UTF-8"?>
<!-- Created with Inkscape (http://www.inkscape.org/) -->
<svg version="1.1" viewBox="0 0 48 48" xmlns="http://www.w3.org/2000/svg">
	<defs>
		<mask id="mask1" maskUnits="userSpaceOnUse">
			<path d="m16-1v19a8 4.5 0 0 0 8 4 8 4.5 0 0 0 8-4v-19z" fill="#fff"/>
		</mask>
		<mask id="mask2" maskUnits="userSpaceOnUse">
			<path d="m14 13h2v3.75h16v-3.75h2v10h-20z" fill="#fff"/>
		</mask>
	</defs>
	<rect transform="scale(-1)" x="-49" y="-49" width="50" height="50" fill="#2d3646"/>
	<g transform="rotate(180,24,24)">
		<rect x="-1" y="16" width="50" height="3" fill="#212121"/>
		<rect x="-1" y="18" width="50" height="7" fill="#2e2e2e"/>
		<rect x="-1" y="24" width="50" height="5" fill="#383838"/>
		<rect x="-1" y="28" width="50" height="4" fill="#4d4d4d"/>
		<rect x="-1" y="30" width="50" height="1" fill="#666"/>
	</g>
	<g transform="rotate(180,24,24)" mask="url(#mask1)">
		<g>
			<rect x="30" y="-1" width="3" height="23" fill="#141414"/>
			<rect x="28" y="-1" width="3" height="23" fill="#212121"/>
			<rect x="21" y="-1" width="8" height="23" fill="#2e2e2e"/>
		</g>
		<rect x="18" y="-1" width="4" height="23" fill="#383838"/>
		<rect x="16.1" y="-1" width="2.9" height="23" fill="#4d4d4d"/>
		<rect x="15" y="-1" width="2" height="23" fill="#666"/>
	</g>
	<path transform="rotate(180,24,24)" d="m32.5 16.5c0.5 7-17.5 7-17 0 0-4 17-4 17 0" fill="none" mask="url(#mask2)" stroke="#0d0d0d" stroke-linecap="round" stroke-width="1.021"/>
</svg>
