<?xml version="1.0" encoding="UTF-8"?>
<!-- Created with Inkscape (http://www.inkscape.org/) -->
<svg version="1.1" viewBox="0 0 48 48" xmlns="http://www.w3.org/2000/svg">
	<defs>
		<linearGradient id="linearGradient1" x1="10.03" x2="23.66" y1="18.14" y2="18.14" gradientTransform="scale(1.396 .7165)" gradientUnits="userSpaceOnUse">
			<stop stop-color="#382e3d" offset="0"/>
			<stop stop-color="#151528" offset="1"/>
		</linearGradient>
		<mask id="mask1" maskUnits="userSpaceOnUse">
			<path d="m16-1v19a8 4.5 0 0 0 8 4 8 4.5 0 0 0 8-4v-19z" fill="#fff"/>
		</mask>
		<mask id="mask2" maskUnits="userSpaceOnUse">
			<path d="m14 13h2v3.75h16v-3.75h2v10h-20z" fill="#fff"/>
		</mask>
	</defs>
	<rect x="-1" y="-1" width="50" height="50" fill="#272727"/>
	<g fill="#2d0c0c">
		<rect x="24.75" y="36.75" width="22.5" height="10.5"/>
		<rect x=".75" y="36.75" width="22.5" height="10.5"/>
		<rect x="36.75" y="24.75" width="22.5" height="10.5"/>
		<rect x="12.75" y="24.75" width="22.5" height="10.5"/>
		<rect x="-11.25" y="24.75" width="22.5" height="10.5"/>
		<rect x="24.75" y="12.75" width="22.5" height="10.5"/>
		<rect x=".75" y="12.75" width="22.5" height="10.5"/>
		<rect x="36.75" y=".75" width="22.5" height="10.5"/>
		<rect x="12.75" y=".75" width="22.5" height="10.5"/>
		<rect x="-11.25" y=".75" width="22.5" height="10.5"/>
	</g>
	<g transform="rotate(90,24,24)">
		<rect x="-1" y="16" width="50" height="2" fill="#33334c"/>
		<rect x="-1" y="17" width="50" height="3" fill="#3f3f5f"/>
		<rect x="-1" y="19" width="50" height="6" fill="#5a5374"/>
		<rect x="-1" y="24" width="50" height="6" fill="#6e6382"/>
		<rect x="-1" y="29" width="50" height="3" fill="#8c8197"/>
		<rect x="-1" y="31" width="50" height="1" fill="#b5acb9"/>
		<g mask="url(#mask1)">
			<rect x="29" y="-1" width="4" height="23" fill="#3f3f5f"/>
			<rect x="24" y="-1" width="6" height="23" fill="#5a5374"/>
			<rect x="19" y="-1" width="6" height="23" fill="#6e6382"/>
			<rect x="15" y="-1" width="5" height="23" fill="#8c8197"/>
			<path d="m17-1h1v17l-1-2z" fill="#b5acb9"/>
		</g>
		<path d="m33 16.5c0 7-18 7-18 0 0-5 18-5 18 0" fill="none" mask="url(#mask2)" stroke="url(#linearGradient1)" stroke-linecap="round" stroke-width="2.021"/>
	</g>
</svg>
