<?xml version="1.0" encoding="UTF-8"?>
<!-- Created with Inkscape (http://www.inkscape.org/) -->
<svg version="1.1" viewBox="0 0 24 24" xmlns="http://www.w3.org/2000/svg">
	<defs>
		<mask id="mask10" maskUnits="userSpaceOnUse">
			<g>
				<rect x="9" y="9" width="18" height="18" rx="4" fill="#fff"/>
				<rect x="12" y="12" width="15" height="15" rx="2"/>
			</g>
		</mask>
		<mask id="mask14" maskUnits="userSpaceOnUse">
			<g>
				<rect x="-1" y="-1" width="26" height="26" fill="#fff"/>
				<rect x="12" y="12" width="15" height="15" rx="2"/>
			</g>
		</mask>
	</defs>
	<rect x="-1" y="-1" width="26" height="26" fill="#1a364e"/>
	<g mask="url(#mask14)">
		<rect x="-1" y="-1" width="26" height="26" fill="#b38d62"/>
		<path d="m-6 3c4 0 8-2 12-2s8 2 12 2 8-2 12-2v12c-4 0-8 2-12 2s-8-2-12-2-8 2-12 2z" fill="#946651" mask="none"/>
	</g>
	<rect x="9" y="9" width="16" height="16" fill="#111134" fill-opacity=".18" mask="url(#mask10)"/>
</svg>
